<svg xmlns="http://www.w3.org/2000/svg" width="25.111" height="24.295" viewBox="0 0 25.111 24.295"><g transform="translate(1.111 0.295)"><path d="M0,0H24V24H0Z" fill="none"/><path d="M12,17l-2,2,2,2m-2-2h9a2,2,0,0,0,1.75-2.75l-.55-1" fill="none" stroke="#aa1815" stroke-linecap="round" stroke-linejoin="round" stroke-width="2"/><path d="M12,17l-2,2,2,2m-2-2h9a2,2,0,0,0,1.75-2.75l-.55-1" transform="translate(29.258 9.108) rotate(120)" fill="none" stroke="#aa1815" stroke-linecap="round" stroke-linejoin="round" stroke-width="2"/><path d="M12,17l-2,2,2,2m-2-2h9a2,2,0,0,0,1.75-2.75l-.55-1" transform="translate(6.742 29.892) rotate(-120)" fill="none" stroke="#aa1815" stroke-linecap="round" stroke-linejoin="round" stroke-width="2"/></g></svg>