<svg xmlns="http://www.w3.org/2000/svg" xmlns:xlink="http://www.w3.org/1999/xlink" width="44" height="44" viewBox="0 0 44 44"><defs><clipPath id="a"><rect width="44" height="44" fill="none"/></clipPath></defs><g transform="translate(0 0)" clip-path="url(#a)"><path d="M36.143,44H7.857A7.857,7.857,0,0,1,0,36.143V7.857A7.857,7.857,0,0,1,7.857,0H36.143A7.857,7.857,0,0,1,44,7.857V36.143A7.857,7.857,0,0,1,36.143,44" transform="translate(0 0)" fill="#286b61"/><rect width="4.553" height="14.709" transform="translate(12.024 17.095)" fill="#fff"/><path d="M15.181,15.928a2.715,2.715,0,1,0-2.692-2.715,2.7,2.7,0,0,0,2.692,2.715" transform="translate(-0.902 -0.759)" fill="#fff"/><path d="M25.374,25.381c0-2.068.952-3.3,2.774-3.3,1.675,0,2.479,1.183,2.479,3.3V33.1h4.532V23.789c0-3.94-2.234-5.845-5.352-5.845a5.129,5.129,0,0,0-4.433,2.431V18.393H21.006V33.1h4.368Z" transform="translate(-1.518 -1.297)" fill="#fff"/></g></svg>