<svg xmlns="http://www.w3.org/2000/svg" xmlns:xlink="http://www.w3.org/1999/xlink" width="44" height="44" viewBox="0 0 44 44"><defs><clipPath id="a"><rect width="44" height="44" fill="none"/></clipPath></defs><g transform="translate(0 0)" clip-path="url(#a)"><path d="M36.143,44H7.857A7.857,7.857,0,0,1,0,36.143V7.857A7.857,7.857,0,0,1,7.857,0H36.143A7.857,7.857,0,0,1,44,7.857V36.143A7.857,7.857,0,0,1,36.143,44" transform="translate(0 0)" fill="#286b61"/><path d="M11.079,30.336A13.679,13.679,0,0,0,32.122,18.19a9.769,9.769,0,0,0,2.4-2.49,9.62,9.62,0,0,1-2.762.757A4.814,4.814,0,0,0,33.875,13.8a9.655,9.655,0,0,1-3.054,1.168,4.813,4.813,0,0,0-8.2,4.386,13.649,13.649,0,0,1-9.913-5.026A4.814,4.814,0,0,0,14.2,20.747a4.8,4.8,0,0,1-2.179-.6,4.815,4.815,0,0,0,3.858,4.778A4.826,4.826,0,0,1,13.707,25,4.813,4.813,0,0,0,18.2,28.346a9.668,9.668,0,0,1-7.12,1.991" transform="translate(-0.801 -0.972)" fill="#fff"/></g></svg>