<?xml version="1.0" encoding="UTF-8"?><svg xmlns="http://www.w3.org/2000/svg" viewBox="0 0 295.4 41.54"><defs><style>.d{fill:#232d5a;}.e{fill:#256b61;}</style></defs><g id="a"/><g id="b"><g id="c"><g><g><path class="d" d="M111.3,36.58v-1.99c-1.1,1.32-2.79,2.33-5.24,2.33-3.06,0-5.76-1.75-5.76-4.99v-.06c0-3.58,2.79-5.3,6.55-5.3,1.96,0,3.22,.28,4.47,.67v-.31c0-2.24-1.41-3.46-3.98-3.46-1.81,0-3.15,.4-4.62,1.01l-1.01-2.97c1.78-.8,3.52-1.35,6.16-1.35,4.78,0,7.1,2.51,7.1,6.83v9.58h-3.67Zm.09-6.77c-.95-.37-2.27-.64-3.71-.64-2.33,0-3.7,.95-3.7,2.51v.06c0,1.53,1.38,2.39,3.12,2.39,2.45,0,4.29-1.38,4.29-3.4v-.92Z"/><path class="d" d="M118.5,28.58v-.06c0-4.59,3.55-8.45,8.39-8.45,3.06,0,4.96,1.13,6.46,2.79l-2.3,2.48c-1.13-1.19-2.33-2.02-4.19-2.02-2.69,0-4.65,2.33-4.65,5.14v.06c0,2.88,1.99,5.2,4.84,5.2,1.75,0,3.03-.83,4.2-2.02l2.24,2.2c-1.59,1.78-3.46,3.03-6.61,3.03-4.81,0-8.36-3.77-8.36-8.36Z"/><path class="d" d="M135.53,28.58v-.06c0-4.59,3.55-8.45,8.39-8.45,3.06,0,4.96,1.13,6.46,2.79l-2.3,2.48c-1.13-1.19-2.33-2.02-4.19-2.02-2.69,0-4.65,2.33-4.65,5.14v.06c0,2.88,1.99,5.2,4.84,5.2,1.75,0,3.03-.83,4.2-2.02l2.24,2.2c-1.59,1.78-3.46,3.03-6.61,3.03-4.81,0-8.36-3.77-8.36-8.36Z"/><path class="d" d="M152.55,28.58v-.06c0-4.62,3.67-8.45,8.63-8.45s8.6,3.77,8.6,8.39v.06c0,4.59-3.67,8.42-8.67,8.42s-8.57-3.77-8.57-8.36Zm13.53,0v-.06c0-2.85-2.05-5.21-4.96-5.21s-4.87,2.33-4.87,5.14v.06c0,2.82,2.05,5.2,4.93,5.2s4.9-2.36,4.9-5.14Z"/><path class="d" d="M173.56,20.41h3.7v2.45c1.04-1.44,2.45-2.79,4.93-2.79,2.33,0,3.95,1.13,4.81,2.85,1.32-1.71,3.03-2.85,5.48-2.85,3.52,0,5.67,2.24,5.67,6.19v10.32h-3.71v-9.19c0-2.57-1.19-3.95-3.28-3.95s-3.46,1.41-3.46,4.01v9.12h-3.71v-9.22c0-2.51-1.22-3.92-3.28-3.92s-3.46,1.53-3.46,4.04v9.09h-3.7V20.41Z"/><path class="d" d="M202.65,20.41h3.7v2.69c1.19-1.68,2.88-3.03,5.48-3.03,3.83,0,7.53,3.03,7.53,8.39v.06c0,5.36-3.67,8.39-7.53,8.39-2.66,0-4.35-1.35-5.48-2.85v7.41h-3.7V20.41Zm12.95,8.11v-.06c0-3.12-2.11-5.17-4.62-5.17s-4.72,2.08-4.72,5.17v.06c0,3.12,2.2,5.17,4.72,5.17s4.62-1.99,4.62-5.17Z"/><path class="d" d="M233.06,36.58v-1.99c-1.1,1.32-2.79,2.33-5.24,2.33-3.06,0-5.76-1.75-5.76-4.99v-.06c0-3.58,2.79-5.3,6.55-5.3,1.96,0,3.22,.28,4.47,.67v-.31c0-2.24-1.41-3.46-3.98-3.46-1.81,0-3.15,.4-4.62,1.01l-1.01-2.97c1.78-.8,3.52-1.35,6.16-1.35,4.78,0,7.1,2.51,7.1,6.83v9.58h-3.67Zm.09-6.77c-.95-.37-2.27-.64-3.71-.64-2.33,0-3.7,.95-3.7,2.51v.06c0,1.53,1.38,2.39,3.12,2.39,2.45,0,4.29-1.38,4.29-3.4v-.92Z"/><path class="d" d="M241.11,39.61l1.38-2.79c1.71,1.07,3.55,1.71,5.76,1.71,3.31,0,5.11-1.71,5.11-4.96v-1.26c-1.35,1.75-3.03,2.97-5.7,2.97-3.8,0-7.35-2.82-7.35-7.56v-.06c0-4.78,3.58-7.59,7.35-7.59,2.73,0,4.41,1.26,5.67,2.76v-2.42h3.7v12.86c0,2.72-.7,4.75-2.05,6.09-1.47,1.47-3.74,2.17-6.64,2.17-2.66,0-5.14-.67-7.23-1.93Zm12.28-11.88v-.06c0-2.66-2.17-4.47-4.75-4.47s-4.59,1.78-4.59,4.44v.06c0,2.66,2.05,4.47,4.59,4.47s4.75-1.84,4.75-4.44Z"/><path class="d" d="M261.66,20.41h3.7v2.51c1.04-1.53,2.54-2.85,5.05-2.85,3.64,0,5.76,2.45,5.76,6.22v10.29h-3.7v-9.19c0-2.51-1.26-3.95-3.46-3.95s-3.64,1.5-3.64,4.01v9.12h-3.7V20.41Z"/><path class="d" d="M279.75,28.55v-.06c0-4.62,3.28-8.42,7.9-8.42,5.14,0,7.75,4.04,7.75,8.7,0,.34-.03,.67-.06,1.04h-11.88c.4,2.63,2.27,4.1,4.65,4.1,1.81,0,3.09-.67,4.38-1.93l2.17,1.93c-1.53,1.84-3.64,3.03-6.61,3.03-4.68,0-8.3-3.4-8.3-8.39Zm11.97-1.19c-.24-2.39-1.65-4.26-4.1-4.26-2.27,0-3.86,1.75-4.19,4.26h8.3Z"/></g><path class="e" d="M95.29,36.97c-.45,.17-.83,.24-1.13,.23-.3-.01-.63-.15-.98-.41-.45-.43-.6-.86-.45-1.3,.15-.44,.54-.88,1.16-1.3,.43-.26,.74-.41,.95-.43,.2-.02,.52,.06,.95,.25,.71,.45,1.03,.95,.95,1.5s-.57,1.04-1.45,1.47Z"/><g><path class="d" d="M91.06,27.67c-.55-.07-1.06,.33-1.13,.88-.03,.24-.81,5.95-5.95,6.12-1.71,.06-3.13-1.22-4.28-2.98,1.7-2.89,4.04-6.58,6.27-9.2,.36-.43,.31-1.07-.12-1.43-.43-.37-1.07-.31-1.43,.11-2.07,2.44-4.19,5.68-5.86,8.44-1.05-2.25-1.72-4.71-2-6.14-.08-.44-.45-.78-.9-.82-.44-.04-.87,.22-1.04,.64-1.77,4.49-5.76,11.55-8.8,11.37-.56-.03-.98-.25-1.33-.7-1.03-1.31-1.16-4.06-1.02-6.34,.2-.99,.32-2.02,.35-3.08,.02-.53-.38-.98-.91-1.04-.53-.05-1.01,.31-1.1,.83-.06,.3-.27,1.53-.37,3.1-.77,3.63-2.68,6.18-4.41,6.67-1.21,.34-2.36-.3-3.4-1.9-.77-1.18-1.3-3.08-1.66-5.62,0,0,.23-.31,.63-.8,1.84-2.45,7.15-14.62,6.28-20.93-.38-2.76-1.77-3.83-2.87-4.24-.72-.27-2.13-.49-3.42,1.13-2.83,3.53-3.85,15.35-2.82,23.83l.34,2.27c.42,2.32,1.03,4.25,1.83,5.47,2.08,3.19,4.44,3.09,5.65,2.75,1.59-.45,3.03-1.78,4.12-3.64,.23,1.07,.61,2.06,1.2,2.81,.71,.9,1.68,1.41,2.82,1.47,4.06,.23,7.76-6.1,9.6-9.93,.45,1.46,1.11,3.26,2.02,4.93-1.14,1.97-1.88,3.39-1.95,3.53-.26,.5-.07,1.11,.43,1.37,.15,.08,.31,.12,.47,.12,.37,0,.72-.2,.9-.54,.02-.03,.54-1.04,1.4-2.54,1.35,1.77,3.08,3.08,5.27,3.08,.06,0,.13,0,.19,0,5.51-.19,7.57-5.26,7.89-7.91,.07-.56-.33-1.06-.88-1.13Zm-39.4-3.92c-.64-7.77,.26-17.93,2.51-20.74,.36-.45,.64-.56,.85-.56,.12,0,.21,.03,.28,.06,.29,.11,1.16,.44,1.51,2.24,1.03,5.3-3.53,16.42-5.15,19Z"/><path class="d" d="M47.17,19.34c-.4-.36-1.02-.33-1.38,.07-1.1,1.21-2.62,2.15-4.44,2.87-.17-3.97-.14-8.27,.2-12.23,.13-1.55,.21-2.91,.28-4.1,.07-1.16,.13-2.34,.24-3.15,.26-.43,.52-.86,.78-1.3,.18-.3,.19-.68,.01-.99-.17-.31-.5-.5-.85-.5-1.06,0-1.54,.72-1.8,2.07-6.83,11.33-11.44,18.12-15.22,22.42-3.22,.03-6.48-.05-9.53-.13h-.03c-.53,0-.96,.42-.98,.95-.01,.54,.41,.99,.95,1,2.64,.07,5.21,.12,7.68,.12,.04,0,.07,0,.1,0-1.56,1.59-3.49,3.33-5.47,4.52-4.75,2.86-7.97,4.04-11.49,4.21-.94,.03-3.66,.04-5-.31-.52-.13-1.06,.17-1.2,.7-.14,.52,.17,1.06,.7,1.2,1.9,.5,5.43,.38,5.59,.37,3.88-.18,7.36-1.44,12.41-4.49,2.76-1.67,5.38-4.25,7.17-6.22,5.18-.1,9.83-.49,13.63-1.51,.35,5.15,1.04,9.63,1.98,11.76,.16,.37,.52,.59,.9,.59,.13,0,.26-.03,.39-.08,.5-.22,.72-.79,.51-1.29-.81-1.86-1.51-6.3-1.85-11.57,2.38-.85,4.34-2,5.78-3.59,.36-.4,.33-1.02-.07-1.38Zm-19.57,5.11c3.22-3.92,7.06-9.56,12.23-17.99-.06,1.02-.13,2.16-.24,3.42-.35,4.05-.38,8.7-.17,13.04-3.39,.98-7.52,1.39-11.82,1.53Z"/><path class="d" d="M65.11,18.01c0,.43-.15,.79-.45,1.08-.3,.3-.66,.45-1.09,.45s-.79-.15-1.08-.45c-.3-.3-.45-.66-.45-1.08,0-.21,.04-.41,.12-.6,.08-.18,.19-.35,.33-.49,.14-.14,.3-.25,.49-.33,.19-.08,.38-.12,.6-.12s.41,.04,.6,.12c.19,.08,.35,.19,.49,.33,.14,.14,.25,.3,.33,.49,.08,.19,.12,.38,.12,.6Z"/></g></g></g></g></svg>