<?xml version="1.0" encoding="UTF-8"?><svg xmlns="http://www.w3.org/2000/svg" viewBox="0 0 911.43 261.8"><defs><style>.d{fill:#a86086;}.e{fill:#232d5a;}.f{fill:#256b61;}.g{fill:#616a8d;}</style></defs><g id="a"/><g id="b"><g id="c"><g><path class="d" d="M600.21,90.34c-24.46-27.99-47.69-57.6-69.05-87.99C530.1,.83,528.5,0,526.66,0c-1.87,0-3.85,.91-5.16,2.38l-75.01,83.67c-1.54,1.71-1.93,3.91-1.05,5.88,.99,2.21,3.46,3.76,6.02,3.76,1.81,0,3.49-.76,4.72-2.13L525.79,15.92c18.14,25.43,37.6,50.33,57.94,74.1l-2.63,.42-4.98,.79c-3.19,.51-5.38,3.59-4.98,7.01l4.15,35.73,.69,5.96c.12,1.06,.27,2.13,.41,3.2,.28,2.09,.58,4.25,.69,6.32,.03,.59-.06,.78-.06,.79-.24,.2-1.47,.4-2.29,.54l-.85,.14-.16,.03c-1.8,.32-3.49,.61-5.15,.63h-.33c-11.51,0-22.99-4.21-35.93-13.21,15.5-16.39,20.71-30.78,15.93-43.92-3.18-8.74-10.85-14.61-19.08-14.61-.51,0-1.03,.02-1.54,.07-4.84,.42-9.48,2.76-12.66,6.29-.18,.2-.46,.26-.71,.15-1.95-.84-4.07-1.29-6.27-1.33h-.3c-6.86,0-12.73,3.82-15.72,10.22-7.98,17.11,8.56,32.31,15.63,38.8,1.93,1.77,3.87,3.49,5.79,5.13-11.58,9.15-27.11,16.43-46.22,21.65-1.69,.46-3.24,1.46-4.16,2.95-1.44,2.34-1.37,5.1,.1,7.29,1.26,1.88,3.34,2.99,5.57,2.99,.58,0,1.16-.08,1.71-.23,7.2-1.93,13.72-4.13,19.38-6.55,12.65-5.4,23.89-12.23,33.44-20.31,7.82,5.68,15.32,9.84,22.89,12.69,7.21,2.72,14.29,4.09,21.03,4.09,.29,0,.58,0,.87,0,5.92-.11,18.25-.33,20.91-9.68,.99-3.48,.42-7.23-.09-10.54-.13-.88-.26-1.74-.36-2.57l-1.69-14.56-1.56-13.44-1.22-10.51,3.62-.58,9.05-1.44c2.15-.34,3.89-1.81,4.66-3.93,.77-2.13,.36-4.48-1.08-6.12Zm-95.25,7.61c.64-.43,1.71-.69,2.79-.69,1.25,0,2.82,.38,3.17,1.46,.85,2.68,3.52,4.55,6.5,4.55,1.6,0,3.05-.58,4.08-1.62,.72-.73,1.56-2.05,1.51-4.14-.04-1.62,.75-2.78,1.42-3.47,1.2-1.23,2.98-1.97,4.75-1.97,.54,0,1.06,.07,1.57,.21,4.39,1.19,6.87,6.69,6.97,11.26,.17,7.27-4.36,14.17-8.33,19.37-2.04,2.68-4.3,5.28-6.85,7.9-3.24-2.68-6.19-5.29-8.96-7.93-3.57-3.4-8.01-7.64-10.19-12.7-1.51-3.51-2.05-9.81,1.58-12.22Z"/><g><path class="e" d="M605.17,143.54v-.29c0-21.88,16.92-40.26,39.96-40.26,14.59,0,23.63,5.4,30.78,13.27l-10.94,11.81c-5.4-5.69-11.08-9.63-19.98-9.63-12.84,0-22.17,11.08-22.17,24.5v.29c0,13.71,9.48,24.8,23.05,24.8,8.31,0,14.44-3.94,19.98-9.63l10.65,10.5c-7.58,8.46-16.48,14.44-31.5,14.44-22.9,0-39.82-17.94-39.82-39.82Z"/><path class="e" d="M739.79,181.61v-9.48c-5.25,6.27-13.27,11.08-24.94,11.08-14.59,0-27.42-8.31-27.42-23.77v-.29c0-17.07,13.27-25.23,31.21-25.23,9.33,0,15.31,1.31,21.3,3.21v-1.46c0-10.65-6.71-16.48-18.96-16.48-8.61,0-15.02,1.9-22.03,4.81l-4.81-14.15c8.46-3.79,16.77-6.42,29.32-6.42,22.75,0,33.84,11.96,33.84,32.53v45.65h-17.5Zm.44-32.23c-4.52-1.75-10.8-3.06-17.65-3.06-11.09,0-17.65,4.52-17.65,11.96v.29c0,7.29,6.56,11.38,14.88,11.38,11.67,0,20.42-6.56,20.42-16.19v-4.38Z"/><path class="e" d="M778.3,104.6h17.65v17.36c4.81-11.52,13.71-19.4,27.28-18.82v18.67h-1.02c-15.46,0-26.25,10.06-26.25,30.48v29.32h-17.65V104.6Z"/><path class="e" d="M831.69,143.4v-.29c0-22.02,15.61-40.11,37.63-40.11,24.5,0,36.9,19.25,36.9,41.42,0,1.6-.14,3.21-.29,4.96h-56.59c1.89,12.54,10.79,19.54,22.17,19.54,8.61,0,14.73-3.21,20.86-9.19l10.36,9.19c-7.29,8.75-17.36,14.44-31.5,14.44-22.31,0-39.53-16.19-39.53-39.96Zm57.03-5.69c-1.17-11.38-7.88-20.27-19.55-20.27-10.79,0-18.38,8.31-19.98,20.27h39.53Z"/></g><path class="f" d="M582.16,251.9c-2.17,.8-3.97,1.17-5.4,1.12-1.43-.06-3-.71-4.71-1.97-2.17-2.05-2.89-4.14-2.14-6.25,.74-2.11,2.6-4.2,5.57-6.25,2.05-1.25,3.57-1.94,4.54-2.06,.97-.11,2.49,.29,4.54,1.2,3.43,2.17,4.94,4.57,4.54,7.2-.4,2.63-2.72,4.97-6.94,7.02Z"/><g><path class="d" d="M775.76,207.15c1.23,0,2.28-.43,3.14-1.29,.86-.86,1.29-1.9,1.29-3.14,0-.62-.12-1.19-.34-1.73-.23-.53-.54-1-.95-1.41-.41-.41-.88-.72-1.41-.95-.53-.23-1.11-.34-1.73-.34s-1.19,.11-1.73,.34c-.54,.23-1.01,.54-1.41,.95-.4,.41-.72,.88-.95,1.41-.23,.54-.34,1.11-.34,1.73,0,1.23,.43,2.28,1.29,3.14,.86,.86,1.9,1.29,3.14,1.29Z"/><path class="d" d="M910.63,232.27c-.54-.62-1.28-.92-2.25-.92-.54,0-1.05,.13-1.53,.4-.48,.27-.86,.64-1.13,1.12-.91,1.77-2.05,3.83-3.42,6.19-1.36,2.36-2.91,4.59-4.62,6.71-1.71,2.11-3.59,3.92-5.62,5.42-2.03,1.5-4.21,2.25-6.51,2.25-.75,0-1.58-.15-2.49-.44-.91-.3-1.77-.82-2.57-1.57-.8-.75-1.48-1.75-2.01-3.01-.54-1.26-.81-2.85-.81-4.78,0-1.34,.08-2.7,.24-4.1,.16-1.39,.35-2.8,.56-4.21,.21-1.42,.4-2.8,.56-4.14,.16-1.33,.24-2.62,.24-3.86,0-3.05-.8-5.25-2.41-6.58s-3.94-2.01-6.99-2.01c-.8,0-1.65,.01-2.53,.04-.88,.03-1.78,.04-2.69,.04,0-1.07-.1-2.33-.28-3.77-.19-1.45-.5-2.82-.92-4.14-.43-1.31-1.03-2.42-1.81-3.34-.77-.91-1.78-1.37-3.01-1.37-1.07,0-2.14,.55-3.21,1.65-1.07,1.1-2.03,2.4-2.89,3.9s-1.54,3.03-2.05,4.58c-.51,1.55-.77,2.79-.77,3.7,0,1.23,.27,2.2,.81,2.89,.54,.7,1.22,1.2,2.05,1.52,.83,.32,1.73,.51,2.69,.56,.96,.05,1.9,.08,2.81,.08-.48,2.36-.88,4.1-1.2,5.22-.26,.93-.48,1.58-.68,2.07-.07,.09-.17,.17-.21,.26-.86,1.76-1.76,3.32-2.69,4.66-.94,1.34-2,2.44-3.18,3.3-1.18,.86-2.49,1.5-3.93,1.93-1.45,.43-3.08,.64-4.9,.64h-1.05c-.32,0-.64-.02-.96-.08,.43-1.87,.64-3.67,.64-5.38,0-3.27-.3-6.08-.88-8.44-.59-2.35-1.38-4.28-2.37-5.78-.99-1.5-2.12-2.6-3.41-3.29-1.29-.7-2.65-1.05-4.1-1.05-2.41,0-4.35,.97-5.83,2.9-1.47,1.93-2.21,4.42-2.21,7.47,0,3.8,1.02,7.23,3.05,10.28s4.63,5.41,7.79,7.07c-1.08,2.2-2.61,4-4.62,5.42-2.01,1.42-4.54,2.13-7.59,2.13-1.72,0-3.27-.31-4.66-.92-1.39-.62-2.6-1.48-3.61-2.57-1.02-1.1-1.8-2.41-2.33-3.94-.54-1.52-.81-3.17-.81-4.94,0-1.98,.27-3.78,.81-5.39,.53-1.61,1.22-3,2.05-4.18,.83-1.17,1.73-2.15,2.69-2.93,.96-.78,1.88-1.38,2.73-1.81,.86-.43,1.57-.87,2.13-1.33,.56-.45,.84-1.14,.84-2.05,0-.8-.23-1.45-.68-1.93-.46-.48-1.14-.72-2.05-.72-.81,0-2.01,.41-3.62,1.24-1.61,.83-3.21,2.09-4.82,3.77-1.31,1.38-2.46,3.11-3.53,5.06-.44,.29-.81,.67-1.05,1.17-1.66,3.32-3.35,6.33-5.06,9.04-1.71,2.71-3.42,5.02-5.1,6.95-1.69,1.93-3.33,3.43-4.94,4.5-1.61,1.07-3.16,1.61-4.66,1.61-.91,0-1.86-.16-2.85-.48-.99-.32-1.93-.96-2.81-1.93-.89-.96-1.61-2.32-2.17-4.06-.56-1.74-.85-4.03-.85-6.87,0-2.09,.07-4.38,.2-6.87,.14-2.49,.3-4.85,.48-7.07,.19-2.22,.35-4.14,.48-5.74,.14-1.61,.2-2.58,.2-2.9,0-.8-.27-1.51-.8-2.13-.54-.62-1.21-.92-2.01-.92-.91,0-1.65,.28-2.21,.84-.56,.56-.9,1.22-1,1.97-.56,4.49-.91,8.99-1.15,13.49-.18,.22-.33,.45-.46,.73-.59,1.4-1.49,3.21-2.69,5.46-1.21,2.25-2.62,4.46-4.26,6.63-1.63,2.17-3.42,4.05-5.34,5.62-1.93,1.58-3.91,2.37-5.94,2.37-1.13,0-2.04-.26-2.74-.77-.7-.51-1.23-1.2-1.61-2.09-.37-.88-.63-1.91-.76-3.09-.13-1.17-.2-2.41-.2-3.69,0-1.02,.04-2.11,.12-3.25,.08-1.15,.16-2.29,.24-3.42,.08-1.12,.16-2.18,.24-3.17,.08-.99,.12-1.83,.12-2.53,0-3-.67-5.51-2.01-7.55-1.34-2.04-3.4-3.06-6.18-3.06-1.39,0-2.88,.42-4.46,1.25-1.58,.83-3.15,2.18-4.7,4.06-1.55,1.93-3.04,3.96-4.46,6.11-1.42,2.14-2.77,4.3-4.06,6.46-1.28,2.17-2.49,4.31-3.61,6.43-1.13,2.12-2.12,4.06-2.98,5.83,.16-1.55,.33-3.48,.52-5.78,.19-2.3,.39-4.62,.6-6.95,.21-2.33,.39-4.51,.52-6.55,.13-2.04,.2-3.54,.2-4.5,0-1.29-.12-2.54-.36-3.78-.24-1.23-.62-2.35-1.13-3.37-.51-1.01-1.19-1.83-2.05-2.45-.86-.62-1.9-.92-3.13-.92-2.09,0-4.19,1.35-6.31,4.06-2.11,2.71-4.38,6.93-6.79,12.65-.02,.05-.01,.1-.03,.15-1.1,2.44-2.32,4.88-3.67,7.32-1.39,2.52-2.97,4.8-4.74,6.83-1.76,2.04-3.72,3.68-5.86,4.94-2.14,1.26-4.53,1.89-7.15,1.89s-4.74-.47-6.51-1.4c-1.77-.94-3.21-2.18-4.34-3.74,2.09-1.02,4.04-2.22,5.86-3.61,1.82-1.39,3.39-2.92,4.7-4.58,1.31-1.66,2.34-3.45,3.09-5.38,.75-1.93,1.12-3.99,1.12-6.19,0-1.71-.3-3.24-.88-4.58-.59-1.33-1.36-2.48-2.33-3.41-.96-.94-2.05-1.66-3.25-2.17-1.2-.51-2.42-.76-3.66-.76-2.09,0-4,.48-5.74,1.45-1.74,.96-3.24,2.3-4.5,4.02-1.26,1.71-2.23,3.72-2.89,6.02-.34,1.18-.59,2.42-.76,3.71-1.13,2.52-2.43,5.04-3.94,7.58-1.61,2.71-3.44,5.17-5.51,7.39-2.06,2.22-4.38,4.03-6.95,5.42-2.57,1.4-5.38,2.09-8.44,2.09h-.8c-.27,0-.54-.03-.8-.08,2.09-1.39,3.59-3.11,4.5-5.14,.91-2.04,1.36-4.18,1.36-6.43,0-1.71-.3-3.43-.92-5.14-.61-1.71-1.4-3.55-2.37-5.5-.96-1.95-2.06-4.11-3.29-6.47-1.24-2.35-2.47-5.06-3.7-8.11,.27-1.29,.48-2.36,.64-3.21,.16-.86,.24-1.71,.24-2.57,0-1.55-.36-2.87-1.08-3.94-.73-1.07-1.7-1.61-2.93-1.61-1.34,0-2.39,.55-3.13,1.65-.76,1.1-1.13,2.53-1.13,4.3,0,.91,.08,1.79,.24,2.65s.43,1.9,.8,3.14c-.43,2.2-.98,4.3-1.65,6.3-.67,2.01-1.7,4.36-3.09,7.03-.22,.43-.35,.73-.4,.92-.05,.19-.08,.42-.08,.68,0,.75,.27,1.41,.81,1.97,.53,.56,1.26,.84,2.17,.84,.8,0,1.46-.26,1.97-.76,.51-.51,1.01-1.22,1.48-2.13,.59-1.18,1.11-2.3,1.57-3.37,.45-1.07,.85-2.04,1.17-2.89,.64,1.55,1.35,3.04,2.13,4.46,.78,1.42,1.5,2.8,2.17,4.14,.67,1.34,1.22,2.68,1.64,4.01,.43,1.34,.64,2.68,.64,4.02,0,.64-.12,1.4-.36,2.29-.24,.89-.63,1.71-1.17,2.49-.54,.77-1.24,1.43-2.13,1.97-.88,.54-1.97,.8-3.25,.8-.64,0-1.27-.1-1.89-.32-.61-.21-1.15-.47-1.61-.76-.45-.29-.85-.56-1.17-.8-.32-.24-.51-.41-.56-.52-.59-.59-1.31-.89-2.17-.89-.81,0-1.52,.31-2.13,.92-.62,.62-.93,1.33-.93,2.13,0,.54,.16,1.05,.49,1.52,1.93,2.89,4.43,4.97,7.51,6.23,3.08,1.26,6.41,1.89,10,1.89,3,0,5.76-.44,8.28-1.33,2.52-.88,4.83-2.06,6.95-3.54,2.11-1.47,4.03-3.14,5.74-5.02,1.71-1.87,3.22-3.79,4.54-5.75,.43-.63,.8-1.25,1.19-1.88,.11,.45,.17,.9,.3,1.35,.81,2.74,2.03,5.18,3.7,7.35,1.66,2.17,3.78,3.93,6.35,5.3,2.57,1.36,5.62,2.05,9.16,2.05,5.52-.11,10.46-2.22,14.83-6.35,4.33-4.09,8.32-10.16,12-18.2,.05-.09,.13-.17,.17-.27,1.93-4.66,3.51-7.91,4.74-9.76,1.23-1.85,2.09-2.85,2.57-3.01,.32,.27,.54,1.02,.64,2.25s.16,2.52,.16,3.86c0,1.02-.05,2.28-.16,3.78s-.24,3.12-.4,4.86c-.16,1.74-.32,3.5-.49,5.26-.16,1.77-.32,3.42-.48,4.94-.16,1.52-.3,2.84-.4,3.93-.11,1.1-.16,1.84-.16,2.21,0,1.71,.47,3.04,1.41,3.98,.94,.94,2.18,1.41,3.74,1.41,1.12,0,2.22-.39,3.29-1.17,1.07-.77,2.14-2.29,3.21-4.54,.54-1.18,1.27-2.67,2.21-4.46,.94-1.79,1.95-3.68,3.05-5.67,1.1-1.98,2.27-3.98,3.53-5.98,1.26-2.01,2.49-3.82,3.7-5.42,1.2-1.61,2.36-2.91,3.45-3.9,1.1-.99,2.08-1.49,2.93-1.49,.43,0,.91,.31,1.45,.92,.54,.62,.8,1.78,.8,3.5,0,1.02-.04,2.08-.12,3.21-.08,1.12-.19,2.25-.32,3.37-.14,1.13-.24,2.2-.32,3.21-.08,1.02-.12,1.93-.12,2.74,0,1.87,.15,3.73,.44,5.58,.29,1.85,.87,3.54,1.73,5.06,.86,1.53,2.04,2.76,3.54,3.7,1.5,.94,3.46,1.41,5.86,1.41,2.14,0,4.19-.54,6.15-1.61,1.96-1.07,3.78-2.41,5.46-4.02,1.69-1.61,3.23-3.39,4.62-5.34,.79-1.11,1.51-2.18,2.19-3.23,.15,1.5,.37,2.97,.74,4.35,.61,2.33,1.55,4.35,2.81,6.07,1.26,1.71,2.8,3.08,4.62,4.1,1.82,1.01,3.94,1.52,6.35,1.52,1.87,0,3.72-.46,5.54-1.37,1.82-.91,3.56-2.1,5.22-3.57,1.66-1.48,3.23-3.14,4.7-4.98,1.22-1.54,2.31-3.08,3.37-4.64,.21,.96,.43,1.9,.77,2.79,.86,2.22,2.06,4.12,3.62,5.71,1.55,1.58,3.37,2.81,5.46,3.7,2.09,.88,4.39,1.32,6.9,1.32,2.14,0,4.13-.29,5.95-.88,1.82-.59,3.47-1.39,4.94-2.41,1.47-1.02,2.77-2.21,3.89-3.58,1.13-1.36,2.09-2.85,2.89-4.46,1.02,.21,2.2,.32,3.53,.32,2.52,.05,4.8-.24,6.83-.89s3.87-1.51,5.5-2.61c1.63-1.1,3.05-2.39,4.26-3.86,1.21-1.48,2.26-3.01,3.18-4.62,.21-.43,.43-.9,.64-1.41,.02-.04,0-.07,.02-.11,.02-.03,.04-.06,.05-.09,.05-.05,.19-.37,.4-.96,.21-.59,.47-1.36,.76-2.29,.3-.94,.61-2.04,.93-3.3,.32-1.26,.58-2.61,.8-4.05,1.02-.05,1.97-.08,2.86-.08h2.45c1.55,0,2.55,.26,3.01,.76,.45,.51,.68,1.27,.68,2.29,0,2.41-.27,4.94-.8,7.59-.54,2.65-.81,5.32-.81,7.99,0,2.52,.38,4.78,1.13,6.79,.75,2.01,1.75,3.7,3.01,5.06,1.26,1.37,2.74,2.41,4.46,3.14,1.71,.72,3.53,1.08,5.46,1.08,3.11,0,5.96-.83,8.56-2.49,2.6-1.66,4.94-3.7,7.03-6.11,2.09-2.41,3.95-5,5.58-7.75,1.63-2.76,3.07-5.24,4.3-7.43,.21-.43,.32-.91,.32-1.45,0-.75-.27-1.43-.8-2.05Zm-249.39,11.61c-.27-.96-.5-1.98-.68-3.06-.19-1.07-.28-2.08-.28-3.05,0-1.55,.15-3.12,.44-4.7,.3-1.58,.76-3.01,1.4-4.3,.64-1.29,1.48-2.33,2.49-3.14,1.02-.8,2.25-1.21,3.7-1.21,1.07,0,2.01,.42,2.81,1.25,.81,.83,1.21,2.05,1.21,3.65,0,1.45-.27,2.88-.8,4.3-.54,1.42-1.28,2.77-2.25,4.06-.96,1.29-2.13,2.46-3.49,3.54-1.37,1.07-2.88,1.96-4.54,2.65Zm172.5-2.81c-1.12-.7-2.1-1.54-2.93-2.53-.83-.99-1.53-2.04-2.09-3.14-.56-1.1-.98-2.21-1.25-3.33-.27-1.12-.4-2.2-.4-3.21,0-1.61,.27-2.65,.8-3.14,.54-.48,.96-.72,1.28-.72,.8,0,1.5,.39,2.09,1.17,.59,.77,1.08,1.79,1.49,3.05,.4,1.26,.71,2.64,.92,4.14,.21,1.5,.32,2.97,.32,4.42,0,1.07-.08,2.17-.24,3.29Zm21.53-22.09c.11-.43,.27-.97,.48-1.61,.21-.64,.45-1.25,.72-1.81,.27-.56,.52-1.05,.77-1.45,.24-.4,.44-.6,.6-.6s.31,.21,.44,.64c.14,.43,.24,.94,.32,1.53,.08,.59,.14,1.19,.16,1.81,.03,.62,.04,1.11,.04,1.49h-3.54Z"/></g><g><path class="g" d="M8.17,250.36v4.07h-3.17v-30h3.17v13.03c1.73-2.55,4.23-4.73,8.14-4.73,5.1,0,10.15,4.03,10.15,11.02v.08c0,6.95-5.01,11.06-10.15,11.06-3.95,0-6.49-2.14-8.14-4.52Zm15.04-6.49v-.08c0-5.01-3.45-8.22-7.48-8.22s-7.69,3.33-7.69,8.18v.08c0,4.93,3.74,8.22,7.69,8.22s7.48-3.04,7.48-8.18Z"/><path class="g" d="M37.15,260.06l1.07-2.51c1.03,.53,1.97,.78,3.33,.78,1.89,0,3.08-.99,4.36-3.99l-9.66-21.17h3.49l7.73,17.71,6.82-17.71h3.37l-8.92,21.95c-1.81,4.4-3.86,6-7.07,6-1.77,0-3.08-.37-4.52-1.07Z"/><path class="g" d="M89.77,225.66h9.99c9.04,0,15.29,6.21,15.29,14.3v.08c0,8.1-6.25,14.39-15.29,14.39h-9.99v-28.77Zm9.99,25.77c7.27,0,11.92-4.93,11.92-11.3v-.08c0-6.37-4.64-11.38-11.92-11.38h-6.74v22.77h6.74Z"/><path class="g" d="M128.5,233.18h3.17v5.55c1.56-3.53,4.64-6.08,8.67-5.92v3.41h-.25c-4.64,0-8.43,3.33-8.43,9.74v8.47h-3.17v-21.25Z"/><path class="g" d="M150.04,243.91v-.08c0-6,4.69-11.1,11.1-11.1s11.06,5.02,11.06,11.02v.08c0,6-4.73,11.1-11.14,11.1s-11.01-5.01-11.01-11.01Zm18.91,0v-.08c0-4.56-3.41-8.3-7.89-8.3s-7.77,3.74-7.77,8.22v.08c0,4.56,3.37,8.26,7.85,8.26s7.81-3.7,7.81-8.18Z"/><path class="g" d="M185.11,225.04h3.62v3.49h-3.62v-3.49Zm.21,8.14h3.17v21.25h-3.17v-21.25Z"/><path class="g" d="M204.06,248.8v-12.82h-2.96v-2.79h2.96v-6.41h3.17v6.41h6.74v2.79h-6.74v12.41c0,2.59,1.44,3.53,3.58,3.53,1.07,0,1.97-.21,3.08-.74v2.71c-1.11,.58-2.3,.9-3.82,.9-3.41,0-6-1.68-6-6Z"/><path class="g" d="M224.9,251.72l1.6-2.26c2.3,1.73,4.85,2.71,7.36,2.71s4.4-1.32,4.4-3.37v-.08c0-2.14-2.51-2.96-5.3-3.74-3.33-.94-7.03-2.1-7.03-6v-.08c0-3.66,3.04-6.08,7.23-6.08,2.59,0,5.47,.9,7.64,2.34l-1.44,2.38c-1.97-1.27-4.23-2.06-6.29-2.06-2.51,0-4.11,1.32-4.11,3.08v.08c0,2.01,2.63,2.79,5.47,3.66,3.29,.99,6.82,2.26,6.82,6.08v.08c0,4.03-3.33,6.37-7.56,6.37-3.04,0-6.41-1.19-8.8-3.12Z"/><path class="g" d="M296.68,251.84c-2.42,1.93-5.51,3.08-9.08,3.08-8.75,0-14.63-6.86-14.63-14.8v-.08c0-7.93,5.96-14.88,14.71-14.88s14.63,6.86,14.63,14.8v.08c0,3.62-1.23,7.03-3.45,9.66l3.82,3.16-2.22,2.42-3.78-3.45Zm-2.38-2.1l-5.34-4.56,2.18-2.42,5.3,4.81c1.56-2.01,2.51-4.6,2.51-7.44v-.08c0-6.53-4.77-11.88-11.34-11.88s-11.26,5.26-11.26,11.8v.08c0,6.54,4.77,11.88,11.34,11.88,2.55,0,4.85-.82,6.62-2.18Z"/><path class="g" d="M315.43,246.37v-13.19h3.16v12.41c0,3.95,2.14,6.41,5.88,6.41s6.37-2.67,6.37-6.66v-12.17h3.12v21.25h-3.12v-3.7c-1.44,2.3-3.62,4.15-7.27,4.15-5.14,0-8.14-3.45-8.14-8.51Z"/><path class="g" d="M346.88,243.91v-.08c0-6,4.69-11.1,11.1-11.1s11.06,5.02,11.06,11.02v.08c0,6-4.73,11.1-11.14,11.1s-11.01-5.01-11.01-11.01Zm18.91,0v-.08c0-4.56-3.41-8.3-7.89-8.3s-7.77,3.74-7.77,8.22v.08c0,4.56,3.37,8.26,7.85,8.26s7.81-3.7,7.81-8.18Z"/><path class="g" d="M382.97,248.8v-12.82h-2.96v-2.79h2.96v-6.41h3.17v6.41h6.74v2.79h-6.74v12.41c0,2.59,1.44,3.53,3.58,3.53,1.07,0,1.97-.21,3.08-.74v2.71c-1.11,.58-2.3,.9-3.82,.9-3.41,0-6-1.68-6-6Z"/><path class="g" d="M405.66,225.04h3.62v3.49h-3.62v-3.49Zm.2,8.14h3.17v21.25h-3.17v-21.25Z"/><path class="g" d="M422.27,243.87v-.08c0-6.95,5.06-11.06,10.15-11.06,3.95,0,6.49,2.14,8.14,4.52v-12.82h3.16v30h-3.16v-4.27c-1.73,2.55-4.23,4.73-8.14,4.73-5.1,0-10.15-4.03-10.15-11.02Zm18.41-.04v-.08c0-4.89-3.74-8.18-7.69-8.18s-7.48,3.04-7.48,8.18v.08c0,5.01,3.45,8.22,7.48,8.22s7.69-3.33,7.69-8.22Z"/><path class="g" d="M458,225.04h3.62v3.49h-3.62v-3.49Zm.2,8.14h3.17v21.25h-3.17v-21.25Z"/><path class="g" d="M485.21,252.17c2.92,0,4.97-1.19,6.7-3l1.97,1.77c-2.14,2.38-4.73,3.99-8.75,3.99-5.84,0-10.6-4.48-10.6-11.1,0-6.16,4.32-11.1,10.19-11.1,6.29,0,9.91,5.02,9.91,11.26,0,.29,0,.62-.04,1.11h-16.85c.45,4.48,3.74,7.07,7.48,7.07Zm6.21-9.62c-.37-3.86-2.59-7.15-6.78-7.15-3.66,0-6.45,3.04-6.9,7.15h13.69Z"/><path class="g" d="M507.29,233.18h3.17v3.7c1.4-2.3,3.62-4.15,7.27-4.15,5.14,0,8.14,3.45,8.14,8.51v13.19h-3.17v-12.41c0-3.95-2.14-6.41-5.88-6.41s-6.37,2.67-6.37,6.66v12.17h-3.17v-21.25Z"/><path class="g" d="M537.96,251.72l1.6-2.26c2.3,1.73,4.85,2.71,7.36,2.71s4.4-1.32,4.4-3.37v-.08c0-2.14-2.51-2.96-5.3-3.74-3.33-.94-7.03-2.1-7.03-6v-.08c0-3.66,3.04-6.08,7.23-6.08,2.59,0,5.47,.9,7.64,2.34l-1.44,2.38c-1.97-1.27-4.23-2.06-6.29-2.06-2.51,0-4.11,1.32-4.11,3.08v.08c0,2.01,2.63,2.79,5.47,3.66,3.29,.99,6.82,2.26,6.82,6.08v.08c0,4.03-3.33,6.37-7.56,6.37-3.04,0-6.41-1.19-8.8-3.12Z"/></g><g><path class="e" d="M445.43,139.28c-2.69-.34-5.19,1.6-5.53,4.32-.15,1.19-3.94,29.1-29.09,29.96-8.34,.27-15.33-5.98-20.91-14.57,8.33-14.13,19.77-32.19,30.67-44.99,1.78-2.09,1.52-5.22-.56-7-2.09-1.79-5.22-1.53-7,.56-10.14,11.91-20.5,27.79-28.65,41.29-5.13-11-8.42-23.03-9.76-30.03-.42-2.17-2.22-3.8-4.42-4.01-2.18-.2-4.27,1.06-5.08,3.12-8.67,21.94-28.15,56.52-43.02,55.62-2.73-.15-4.8-1.24-6.53-3.42-5.06-6.41-5.66-19.86-5-30.99,.97-4.84,1.56-9.9,1.71-15.07,.08-2.6-1.86-4.81-4.44-5.08-2.59-.25-4.94,1.49-5.4,4.05-.27,1.49-1.3,7.48-1.79,15.15-3.79,17.74-13.1,30.21-21.59,32.6-5.93,1.67-11.53-1.46-16.64-9.3-3.76-5.76-6.38-15.08-8.14-27.49,0,0,1.11-1.5,3.07-3.93,9-12,34.96-71.52,30.72-102.36-1.86-13.49-8.66-18.73-14.04-20.75-3.54-1.33-10.4-2.37-16.75,5.53-13.86,17.28-18.85,75.08-13.79,116.58l1.67,11.09c2.07,11.34,5.04,20.77,8.95,26.76,10.19,15.6,21.71,15.11,27.65,13.43,7.79-2.2,14.82-8.69,20.17-17.79,1.12,5.24,2.96,10.05,5.86,13.72,3.47,4.4,8.23,6.88,13.78,7.19,19.86,1.1,37.94-29.82,46.94-48.57,2.18,7.13,5.42,15.96,9.89,24.13-5.55,9.64-9.19,16.56-9.56,17.26-1.27,2.43-.33,5.43,2.1,6.7,.74,.38,1.52,.57,2.3,.57,1.79,0,3.52-.97,4.4-2.67,.08-.14,2.66-5.07,6.83-12.43,6.6,8.67,15.06,15.06,25.78,15.06,.31,0,.62,0,.94-.02,26.96-.93,37.04-25.71,38.6-38.68,.33-2.72-1.61-5.18-4.32-5.52Zm-192.74-19.17c-3.11-38.02,1.28-87.68,12.3-101.43,1.78-2.22,3.14-2.75,4.15-2.75,.57,0,1.02,.17,1.36,.3,1.4,.53,5.67,2.13,7.38,10.94,5.04,25.9-17.29,80.33-25.19,92.94Z"/><path class="e" d="M230.7,98.52c-1.95-1.78-4.99-1.64-6.76,.33-5.39,5.94-12.83,10.51-21.72,14.01-.86-19.42-.69-40.44,.97-59.81,.65-7.6,1.03-14.23,1.35-20.07,.32-5.67,.64-11.47,1.17-15.43,1.26-2.09,2.53-4.2,3.82-6.35,.89-1.48,.91-3.32,.06-4.82-.85-1.5-2.44-2.43-4.17-2.43-5.2,0-7.54,3.5-8.79,10.12-33.4,55.4-55.97,88.63-74.43,109.68-15.77,.15-31.68-.26-46.6-.65-.04,0-.08,0-.13,0-2.58,0-4.71,2.06-4.78,4.66-.07,2.64,2.02,4.84,4.66,4.91,12.91,.34,25.47,.58,37.56,.58,.17,0,.34,0,.51,0-7.62,7.78-17.06,16.27-26.74,22.11-23.22,14-38.99,19.78-56.18,20.59-4.59,.16-17.91,.21-24.48-1.52-2.57-.66-5.18,.85-5.85,3.4-.68,2.56,.85,5.18,3.4,5.86,9.29,2.46,26.54,1.86,27.33,1.83,18.98-.9,36.01-7.06,60.72-21.96,13.51-8.15,26.32-20.8,35.06-30.44,25.35-.47,48.09-2.4,66.69-7.37,1.7,25.21,5.11,47.11,9.66,57.53,.79,1.8,2.55,2.87,4.39,2.87,.64,0,1.29-.13,1.91-.4,2.42-1.06,3.53-3.88,2.47-6.31-3.97-9.1-7.4-30.81-9.05-56.62,11.62-4.15,21.24-9.8,28.27-17.55,1.78-1.96,1.63-4.99-.33-6.76Zm-95.72,24.97c15.77-19.18,34.55-46.78,59.82-87.99-.29,5.01-.63,10.56-1.16,16.73-1.7,19.82-1.87,42.57-.85,63.8-16.59,4.77-36.78,6.78-57.82,7.46Z"/><path class="e" d="M318.48,92.06c0,2.08-.73,3.85-2.18,5.31-1.45,1.45-3.22,2.18-5.31,2.18s-3.85-.73-5.31-2.18c-1.45-1.45-2.18-3.22-2.18-5.31,0-1.04,.19-2.01,.58-2.92,.38-.9,.92-1.7,1.6-2.39,.68-.69,1.48-1.22,2.39-1.6,.91-.38,1.88-.58,2.92-.58s2.02,.19,2.92,.58c.91,.38,1.7,.92,2.39,1.6,.68,.69,1.22,1.48,1.6,2.39,.38,.91,.57,1.88,.57,2.92Z"/></g></g></g></g></svg>